<?xml version="1.0" encoding="UTF-8" standalone="no"?>
<!DOCTYPE svg PUBLIC "-//W3C//DTD SVG 20010904//EN" "http://www.w3.org/TR/2001/REC-SVG-20010904/DTD/svg10.dtd">
<svg version="1.0" xmlns="http://www.w3.org/2000/svg" width="1029.000000pt" height="1280.000000pt" viewBox="0 0 1029.000000 1280.000000" preserveAspectRatio="xMidYMid meet">
<metadata>
Created by potrace 1.15, written by Peter Selinger 2001-2017
</metadata>
<g transform="translate(0.000000,1280.000000) scale(0.100000,-0.100000)" fill="#000000" stroke="none">
<path d="M8867 12752 c-10 -10 -17 -35 -17 -55 0 -35 -1 -36 -33 -30 -50 8 -74 -36 -56 -101 13 -47 44 -74 69 -58 45 28 53 5 14 -41 -14 -17 -23 -38 -21 -48 3 -12 -2 -20 -15 -25 -27 -8 -40 -47 -27 -84 7 -20 8 -48 2 -84 -6 -31 -6 -63 -1 -77 7 -17 5 -25 -4 -28 -7 -2 -26 -17 -41 -33 -16 -15 -30 -28 -33 -28 -2 0 -4 31 -4 69 0 86 -12 118 -45 127 l-25 6 31 36 c28 32 31 40 26 81 -9 68 -46 181 -60 181 -18 0 -70 -57 -105 -115 -28 -47 -54 -127 -66 -205 -4 -19 -31 -89 -62 -155 -31 -66 -63 -139 -71 -163 -15 -42 -15 -44 8 -68 l22 -24 -23 -51 c-23 -47 -70 -99 -91 -99 -18 0 -10 76 11 95 17 15 19 26 14 65 -4 28 -2 56 5 68 8 16 8 39 -1 91 -14 83 -2 131 47 189 18 20 36 53 40 72 4 19 16 46 27 61 25 34 35 101 17 116 -8 6 -27 13 -44 15 -31 4 -23 11 27 22 40 9 100 74 96 106 -2 19 -10 26 -30 28 -16 2 -28 -1 -28 -7 0 -6 -4 -11 -10 -11 -5 0 -7 13 -4 28 7 36 -7 47 -76 57 -97 13 -105 12 -104 -10 1 -11 5 -28 9 -37 5 -13 3 -18 -9 -18 -28 0 -74 -29 -81 -50 -8 -27 9 -48 42 -52 15 -2 29 -9 31 -17 3 -8 0 -11 -6 -8 -5 4 -15 0 -22 -8 -10 -12 -10 -24 -1 -54 17 -57 14 -59 -20 -18 -27 33 -37 38 -68 36 -22 -2 -47 4 -64 16 -57 37 -117 -17 -76 -68 10 -14 19 -39 19 -56 l0 -31 -34 17 c-44 20 -66 12 -66 -25 0 -38 29 -73 87 -108 l48 -29 -44 -6 c-39 -5 -64 -22 -73 -51 -2 -6 -19 4 -37 21 -18 17 -37 31 -43 31 -5 0 -25 11 -45 24 -19 14 -41 22 -49 19 -7 -3 -21 -31 -30 -63 -11 -38 -26 -68 -45 -84 -16 -15 -29 -35 -29 -45 0 -11 -9 -22 -19 -26 -11 -3 -23 -14 -26 -24 -3 -11 -14 -21 -25 -24 -26 -7 -60 -65 -60 -102 0 -29 -2 -30 -40 -31 -43 -2 -110 -43 -110 -69 0 -7 15 -26 34 -42 l35 -28 -24 -11 c-21 -10 -26 -9 -39 11 -17 26 -74 55 -110 55 -14 0 -41 14 -61 31 -40 35 -65 33 -65 -6 0 -17 -8 -29 -25 -37 -14 -6 -25 -16 -25 -23 0 -15 -49 -59 -82 -73 -16 -6 -28 -17 -28 -23 0 -6 28 -39 63 -74 46 -46 74 -65 99 -70 60 -11 100 -53 113 -118 l11 -56 -25 19 c-15 10 -42 35 -61 55 -43 45 -85 68 -110 60 -25 -8 -42 -63 -34 -112 5 -35 3 -40 -21 -51 -15 -7 -25 -9 -23 -5 2 5 10 21 18 36 12 24 12 36 -1 85 -15 61 -41 80 -65 48 -20 -27 -38 8 -42 83 -5 77 -21 101 -68 101 -41 0 -77 -40 -93 -104 -21 -83 21 -138 93 -124 21 4 25 0 29 -26 2 -17 7 -39 12 -48 5 -13 3 -18 -9 -18 -37 0 -69 -95 -41 -123 12 -13 14 -21 5 -36 -12 -24 -13 -121 -1 -140 7 -10 3 -23 -10 -39 -10 -14 -19 -32 -19 -40 0 -11 -3 -13 -10 -6 -8 8 -8 19 0 38 13 35 13 310 -1 359 -7 26 -16 37 -29 37 -27 0 -77 -45 -85 -77 -3 -16 -15 -37 -25 -48 -10 -11 -27 -38 -38 -60 -13 -24 -21 -33 -22 -22 0 11 -16 25 -42 37 -56 25 -74 25 -81 -2 -4 -12 -9 -20 -12 -16 -10 9 34 114 56 134 37 33 40 50 18 78 -22 28 -66 35 -86 15 -17 -17 -56 48 -48 81 14 58 16 87 6 113 -16 41 -46 35 -71 -13 -22 -44 -25 -81 -9 -112 12 -23 3 -72 -12 -62 -6 3 -8 8 -5 11 15 15 -17 43 -48 43 -41 0 -56 -17 -63 -70 -7 -50 10 -74 46 -65 24 6 24 4 -9 -24 -30 -25 -33 -32 -23 -49 7 -11 8 -24 2 -33 -4 -8 -6 -23 -3 -35 5 -17 -3 -24 -46 -42 -48 -20 -51 -24 -48 -52 2 -24 -2 -33 -22 -43 -14 -7 -26 -22 -28 -33 -2 -11 -13 -24 -25 -29 -27 -12 -35 -66 -13 -85 9 -7 16 -18 16 -26 0 -7 6 -19 14 -27 15 -14 11 -57 -4 -57 -13 0 -50 65 -50 88 0 36 -80 81 -103 58 -8 -8 -25 -12 -39 -9 -20 4 -29 0 -38 -16 -6 -12 -29 -33 -50 -46 -43 -27 -49 -48 -24 -76 15 -17 13 -18 -23 -24 -21 -4 -46 -9 -56 -12 -24 -6 -40 -39 -28 -61 5 -9 7 -29 4 -44 -3 -18 1 -32 15 -46 20 -20 20 -20 1 -25 -28 -7 -36 -37 -14 -53 17 -13 17 -15 -8 -40 -45 -44 -29 -115 22 -99 14 4 23 0 31 -15 20 -37 72 -15 82 35 4 24 72 71 117 80 48 10 31 -11 -20 -25 -47 -13 -81 -59 -77 -105 2 -24 8 -31 31 -33 21 -3 27 -9 27 -28 0 -27 -3 -29 -29 -12 -23 14 -94 -11 -99 -36 -2 -9 13 -46 33 -81 27 -48 32 -65 21 -65 -8 0 -19 -8 -24 -17 -7 -12 -24 -17 -56 -18 -35 0 -52 -7 -74 -28 -15 -15 -31 -27 -35 -27 -4 0 -7 38 -7 85 0 55 -4 88 -12 95 -94 76 -146 106 -149 83 0 -5 -2 -20 -3 -35 -1 -15 -9 -35 -19 -46 -22 -24 -22 -29 8 -68 l25 -33 -27 -3 c-23 -2 -30 -10 -37 -40 -5 -21 -13 -38 -17 -38 -4 0 -3 14 3 30 5 17 7 46 4 65 -3 19 -9 50 -12 68 -4 21 2 56 16 96 23 69 17 91 -18 72 -11 -6 -23 -11 -25 -11 -3 0 16 40 40 89 36 72 46 101 47 145 1 74 -17 95 -62 72 -35 -18 -76 -68 -87 -106 -4 -14 -17 -31 -28 -39 -23 -16 -84 -143 -87 -181 -4 -50 0 -69 23 -96 23 -26 23 -28 5 -46 -10 -10 -18 -30 -18 -44 0 -14 -4 -23 -9 -20 -5 3 -6 25 -4 49 6 48 -17 114 -42 123 -8 4 -15 18 -15 34 0 15 -7 33 -16 40 -24 21 -46 -10 -55 -77 -6 -42 -14 -62 -28 -72 -12 -7 -21 -22 -21 -32 0 -23 -32 -26 -50 -4 -7 8 -16 15 -21 15 -14 0 -79 -61 -79 -74 0 -7 -9 -21 -20 -31 -29 -27 -26 -71 9 -106 35 -34 50 -36 83 -9 19 14 28 16 36 8 19 -19 14 -27 -19 -30 -44 -4 -59 -30 -39 -65 9 -15 27 -34 42 -42 24 -14 30 -14 62 2 22 10 38 26 42 41 3 13 24 37 45 52 22 15 53 42 69 61 17 19 30 28 30 22 0 -6 -15 -26 -34 -43 -44 -42 -56 -67 -56 -113 0 -38 -1 -39 -37 -40 -66 -2 -148 -15 -162 -27 -8 -6 -24 -11 -35 -11 -13 0 -26 -11 -34 -27 -7 -16 -19 -28 -26 -28 -16 0 -26 -22 -26 -55 0 -42 -21 -40 -66 9 -24 25 -46 46 -50 46 -3 0 -17 -9 -31 -20 -14 -11 -35 -20 -47 -20 -27 0 -70 -44 -83 -85 -8 -24 -16 -31 -42 -33 -26 -3 -36 -10 -44 -33 -7 -18 -19 -29 -31 -29 -34 0 -82 -65 -115 -155 -35 -97 -39 -133 -15 -142 12 -4 30 8 58 38 160 175 172 185 234 194 42 5 57 14 82 41 16 19 30 39 30 44 0 10 58 50 73 50 4 0 7 -6 7 -14 0 -31 26 -37 71 -18 24 11 61 22 81 26 27 5 42 15 52 34 8 15 26 38 40 51 24 23 27 23 44 8 26 -24 59 -21 86 8 26 28 59 31 96 10 14 -8 35 -14 47 -15 26 0 72 52 80 91 6 34 18 38 26 9 7 -27 34 -25 43 2 l7 23 8 -23 c10 -26 26 -28 77 -6 l37 15 -23 -21 c-12 -11 -22 -25 -22 -29 0 -5 -8 -11 -17 -13 -10 -3 -25 -17 -33 -32 -14 -26 -13 -29 8 -46 12 -10 22 -28 22 -40 0 -21 3 -22 46 -15 32 4 44 3 39 -4 -3 -6 -19 -11 -35 -11 -16 0 -30 -7 -34 -16 -8 -21 -10 -17 23 -58 34 -43 31 -69 -8 -64 -25 3 -26 7 -32 75 -8 80 -33 136 -65 141 -24 3 -57 -48 -64 -102 -3 -22 -11 -42 -19 -44 -9 -3 -11 0 -7 7 4 7 2 18 -4 26 -14 17 -60 20 -60 5 0 -5 -13 -7 -29 -4 -26 6 -30 2 -55 -47 -31 -64 -32 -69 -5 -103 26 -33 47 -33 55 -1 4 15 13 25 23 24 10 0 11 -2 4 -6 -16 -6 -17 -39 -2 -49 7 -4 0 -12 -17 -20 -16 -7 -39 -20 -50 -29 -20 -15 -21 -15 -17 8 4 18 -3 27 -30 41 -45 25 -92 12 -93 -25 0 -14 -8 -34 -17 -45 -9 -10 -30 -34 -47 -53 -36 -41 -37 -48 -8 -78 22 -23 22 -24 4 -58 -21 -38 -16 -65 11 -65 30 0 142 72 185 118 37 40 42 43 56 28 15 -15 14 -16 -6 -16 -15 0 -22 -6 -22 -19 0 -11 -9 -23 -20 -26 -24 -8 -70 -65 -70 -88 0 -9 7 -20 16 -25 25 -14 0 -24 -31 -12 -37 14 -39 13 -76 -17 -51 -43 -108 -121 -119 -164 -6 -21 -25 -55 -42 -75 -21 -24 -32 -48 -34 -72 -5 -87 -22 -131 -35 -94 -20 52 -101 8 -114 -62 -5 -26 -20 -47 -55 -76 -26 -22 -52 -40 -56 -40 -5 0 -26 -5 -47 -11 -31 -8 -38 -14 -35 -32 2 -13 16 -28 37 -38 19 -9 40 -28 48 -43 14 -27 14 -27 -8 -14 -54 32 -65 38 -82 38 -10 0 -29 -12 -43 -26 -20 -19 -25 -33 -22 -58 3 -25 -1 -37 -14 -45 -10 -6 -18 -18 -18 -26 0 -8 -4 -15 -10 -15 -5 0 -10 6 -10 14 0 26 -23 30 -41 7 -25 -31 -42 -92 -29 -105 7 -7 17 -6 30 2 36 22 50 15 50 -25 0 -29 -3 -34 -12 -25 -7 7 -27 12 -45 12 -18 0 -42 6 -53 12 -28 18 -54 -1 -58 -41 -3 -33 0 -35 51 -31 32 2 57 -15 57 -39 -1 -14 -3 -14 -15 2 -20 27 -45 17 -79 -30 -25 -36 -27 -44 -16 -59 10 -11 24 -14 47 -11 21 4 33 2 33 -5 0 -6 8 -20 17 -30 15 -17 15 -20 3 -28 -20 -13 -47 -12 -55 0 -20 32 -100 -17 -92 -56 4 -24 -7 -33 -18 -14 -15 24 -100 -6 -140 -50 -20 -22 -20 -22 1 -39 l20 -16 -28 -39 c-32 -45 -45 -99 -30 -129 6 -12 12 -31 14 -42 3 -13 11 -20 26 -19 20 1 22 -4 22 -62 0 -42 -5 -67 -15 -78 -9 -9 -15 -33 -15 -64 0 -34 -5 -52 -14 -55 -8 -3 -19 -22 -26 -41 -6 -20 -17 -36 -25 -36 -17 0 -44 -42 -52 -81 -5 -25 -2 -31 15 -36 20 -5 20 -5 1 -61 -25 -74 -24 -88 8 -97 l26 -6 -25 -26 c-22 -21 -28 -23 -45 -12 -26 16 -48 7 -70 -29 -17 -26 -20 -27 -43 -15 -54 28 -117 4 -122 -46 -4 -33 23 -49 62 -34 26 10 29 9 21 -5 -20 -36 -78 -81 -112 -87 -32 -6 -38 -3 -64 30 -25 34 -31 37 -63 31 -65 -10 -142 -55 -160 -93 -12 -25 -14 -38 -5 -51 9 -15 25 -16 110 -13 98 3 99 3 117 -24 14 -21 15 -29 5 -41 -10 -12 -9 -18 2 -30 13 -12 22 -10 69 21 30 19 63 35 73 35 38 0 -127 -97 -185 -109 -49 -10 -59 -17 -64 -37 -4 -15 -12 -23 -19 -20 -21 7 -35 -15 -35 -56 0 -34 -3 -38 -24 -38 -14 0 -27 -4 -31 -10 -3 -5 -12 -7 -19 -4 -8 3 -20 -3 -27 -13 -10 -13 -27 -18 -64 -18 l-50 0 3 -67 4 -67 -44 -42 c-23 -24 -52 -48 -63 -54 -11 -6 -26 -28 -35 -50 -11 -28 -21 -40 -35 -40 -16 0 -20 -7 -20 -31 -1 -17 -11 -43 -23 -59 -33 -41 -29 -65 9 -65 47 0 25 -19 -80 -69 -49 -23 -96 -50 -104 -59 -22 -25 -46 -127 -34 -147 11 -20 -7 -36 -82 -70 -63 -29 -61 -29 -61 -11 0 18 -75 81 -113 95 -67 26 -164 4 -160 -35 2 -17 -3 -20 -27 -16 -19 3 -42 -4 -65 -18 -55 -34 -59 -50 -25 -104 17 -26 30 -55 30 -65 0 -10 9 -26 19 -35 16 -15 18 -22 9 -41 -9 -20 -13 -21 -38 -12 -22 8 -49 6 -123 -12 -53 -13 -101 -29 -107 -36 -16 -20 -3 -54 26 -67 13 -6 24 -14 24 -17 0 -3 -16 -19 -36 -35 -20 -16 -42 -44 -50 -62 -13 -31 -18 -34 -57 -34 l-42 0 51 29 c51 29 84 67 84 95 0 24 -42 46 -88 46 -36 0 -49 -6 -72 -30 -15 -16 -35 -30 -43 -30 -8 0 -26 -9 -40 -20 -15 -12 -41 -20 -64 -20 -42 0 -109 -27 -136 -54 -9 -10 -17 -31 -17 -47 0 -26 -3 -29 -34 -29 -45 0 -64 -22 -46 -54 14 -28 53 -48 75 -40 11 5 15 -1 15 -20 0 -29 13 -34 95 -38 44 -3 50 -6 53 -27 2 -13 12 -26 23 -28 25 -7 24 -17 -3 -32 -19 -10 -33 -7 -87 14 -52 22 -74 25 -115 20 -47 -5 -50 -5 -32 10 11 8 25 15 32 15 7 0 14 6 17 13 9 24 -13 46 -63 62 -57 19 -80 10 -80 -29 0 -37 -15 -47 -81 -56 -46 -7 -69 -15 -81 -30 -21 -25 -10 -55 22 -65 36 -11 21 -26 -23 -23 -41 3 -42 4 -56 51 -12 39 -19 47 -35 45 -24 -4 -34 -33 -35 -108 -1 -60 18 -99 47 -101 13 0 14 -2 3 -6 -9 -4 -28 10 -50 36 -34 39 -38 42 -64 32 -16 -6 -59 -11 -97 -11 -82 0 -100 -6 -100 -32 0 -20 52 -48 90 -48 11 0 20 -4 20 -9 0 -6 -12 -6 -32 0 -18 5 -34 9 -35 9 -13 0 -33 -39 -33 -66 0 -29 -3 -34 -24 -34 -14 0 -28 -4 -31 -10 -11 -18 -21 -11 -44 30 -12 22 -26 42 -31 45 -14 9 -76 -33 -89 -61 -16 -36 -8 -54 44 -97 25 -21 45 -46 45 -56 0 -17 -37 -41 -65 -41 -14 0 -35 -29 -35 -49 0 -18 31 -41 55 -41 18 0 22 -4 18 -20 -5 -18 -7 -19 -22 -7 -35 31 -123 68 -154 65 -28 -3 -32 -7 -35 -35 -2 -20 -10 -34 -21 -38 -10 -3 -23 -16 -29 -29 -22 -50 27 -70 100 -41 15 6 15 3 -3 -31 -34 -68 -18 -141 33 -151 22 -4 27 -10 22 -22 -4 -9 -8 -29 -8 -44 -1 -23 -7 -29 -37 -37 -20 -6 -44 -19 -55 -31 -10 -12 -31 -27 -46 -35 -16 -8 -28 -21 -28 -29 0 -16 30 -50 50 -57 21 -7 -20 -62 -78 -104 -105 -75 -144 -141 -106 -178 20 -21 27 -20 50 5 10 12 38 30 61 40 29 12 49 31 68 63 l27 46 29 -29 c16 -16 29 -37 29 -45 0 -10 9 -16 23 -16 12 0 30 -12 41 -27 l19 -25 -45 26 c-49 28 -104 34 -132 13 -10 -7 -21 -28 -25 -47 -6 -29 -13 -37 -50 -51 -42 -15 -64 -36 -55 -51 3 -4 0 -16 -6 -27 -7 -14 -7 -23 3 -33 6 -7 12 -40 13 -73 1 -33 7 -73 14 -90 7 -16 14 -61 15 -100 1 -48 8 -83 22 -110 24 -48 37 -95 25 -95 -5 0 -16 16 -25 35 -21 44 -53 47 -68 8 -6 -16 -12 -65 -13 -110 -1 -106 9 -119 97 -116 61 2 62 1 77 -30 16 -35 56 -49 71 -25 7 10 12 8 25 -10 11 -16 24 -23 39 -20 18 4 21 1 17 -14 -12 -46 -104 -24 -217 53 -55 37 -60 39 -72 23 -11 -15 -9 -21 10 -42 12 -13 22 -36 22 -53 0 -23 -4 -29 -22 -29 -29 0 -47 -33 -33 -60 13 -24 62 -27 80 -6 6 8 18 12 25 9 12 -4 12 -9 -2 -29 -12 -20 -15 -40 -10 -95 l6 -70 -22 33 c-15 21 -32 34 -49 36 -24 3 -28 -1 -37 -35 -28 -112 -22 -233 13 -233 13 0 12 -6 -4 -33 -12 -20 -19 -51 -19 -82 0 -29 -11 -81 -27 -125 -42 -119 -34 -180 23 -180 16 0 27 7 30 20 6 24 16 25 33 5 7 -9 23 -15 34 -13 43 6 23 98 -21 98 -8 0 -13 11 -13 29 l0 29 31 -29 c36 -34 91 -39 141 -13 37 19 102 20 144 3 l29 -12 -35 -6 c-31 -5 -35 -9 -35 -36 0 -27 3 -30 36 -33 l36 -3 -59 -57 c-82 -78 -85 -86 -54 -131 34 -49 34 -62 -2 -50 -15 4 -38 11 -52 13 -14 3 -36 21 -49 41 -24 36 -51 45 -68 23 -6 -7 -16 -38 -23 -68 -7 -30 -22 -80 -33 -110 -27 -72 -27 -150 2 -216 30 -68 182 -257 251 -311 74 -57 163 -110 225 -134 47 -18 79 -19 535 -19 l484 0 33 32 c18 18 33 38 33 45 0 11 5 11 21 3 38 -21 75 20 93 102 4 19 25 40 69 70 34 23 84 59 110 80 27 21 55 38 63 38 18 0 44 52 44 87 0 34 25 73 46 73 8 0 29 7 46 16 26 14 34 14 56 2 19 -10 26 -10 29 -1 3 8 15 10 33 7 16 -4 50 1 77 9 26 8 60 18 76 21 16 4 39 22 55 45 24 33 30 37 38 23 17 -27 39 -7 53 49 7 30 29 86 47 126 19 40 34 83 34 95 0 19 2 20 10 8 5 -8 10 -30 10 -47 0 -23 5 -33 15 -33 10 0 15 -10 15 -32 0 -18 11 -51 25 -73 13 -22 25 -53 25 -68 0 -54 49 -117 90 -117 20 0 50 50 50 84 0 31 15 34 30 6 7 -14 21 -20 44 -20 48 0 61 -21 63 -107 2 -98 5 -103 50 -103 95 1 119 43 173 315 22 108 22 131 1 240 -28 141 -28 140 16 162 48 23 65 59 71 150 l5 73 41 10 c115 29 187 86 232 184 26 57 60 242 69 375 l6 86 -65 190 c-36 104 -66 204 -66 222 0 40 21 53 84 53 78 0 93 11 136 102 53 114 74 182 66 218 -13 70 -125 207 -189 233 -20 9 -47 36 -71 70 -37 54 -38 58 -32 114 3 32 18 117 31 188 53 280 53 263 10 410 -40 138 -42 155 -32 367 3 72 12 124 25 160 24 64 21 82 -29 207 l-37 93 32 52 c64 100 70 117 71 197 1 72 2 78 50 155 157 253 269 364 369 364 33 0 189 -39 268 -67 45 -16 48 -16 68 2 32 29 90 155 96 210 7 56 -9 190 -28 229 -6 16 -43 46 -85 72 -40 26 -73 47 -73 49 0 12 76 164 156 311 53 99 107 209 120 246 12 36 32 80 45 97 20 27 23 47 30 188 4 87 15 216 24 286 15 123 12 218 -12 315 -5 21 -2 22 53 22 102 1 248 78 288 153 16 29 17 40 7 86 -20 93 -15 124 29 188 23 32 71 113 108 181 37 68 91 156 121 195 111 147 117 213 38 383 -59 126 -60 150 -9 171 73 30 89 54 136 217 19 61 43 129 54 151 25 48 150 199 168 203 19 5 94 -36 148 -81 37 -31 52 -38 64 -31 9 6 32 46 51 90 l36 79 5 200 c5 196 5 200 27 203 12 2 40 -6 62 -18 23 -11 78 -25 123 -31 44 -5 140 -30 213 -55 72 -24 146 -44 164 -44 38 0 72 32 111 105 l25 46 -21 17 c-12 9 -29 22 -39 27 -15 9 -14 14 9 55 31 56 56 149 56 211 0 55 -14 100 -48 152 -29 44 -24 53 38 65 25 5 60 18 79 30 32 19 37 20 69 6 47 -19 91 -18 99 3 4 9 -4 47 -17 85 l-23 68 28 30 c35 37 65 38 121 5 86 -51 281 -298 324 -412 23 -61 45 -73 145 -73 61 0 91 -5 120 -20 53 -27 63 -26 132 19 68 44 118 100 127 142 7 39 23 37 97 -11 35 -22 92 -49 128 -61 36 -11 90 -33 119 -50 51 -29 72 -31 72 -6 0 7 14 24 32 38 29 24 31 31 30 80 -2 105 36 189 87 189 37 0 47 14 67 90 15 59 15 69 0 120 -23 85 -39 317 -33 472 6 129 8 140 32 172 28 37 84 161 85 187 0 21 43 49 72 48 104 -4 115 -3 151 20 20 12 37 30 37 40 0 10 16 31 35 48 19 17 35 38 35 47 0 8 14 19 33 24 17 6 39 13 47 16 11 5 19 -3 28 -28 13 -35 82 -106 105 -106 6 0 31 -15 55 -34 29 -23 79 -46 160 -72 132 -42 150 -55 206 -156 l37 -66 -47 -103 c-65 -146 -73 -218 -31 -283 20 -30 94 -79 107 -71 29 18 44 82 44 193 1 113 1 114 27 128 15 7 43 36 62 63 20 27 48 55 64 63 54 26 77 113 52 201 -6 22 -8 41 -6 44 3 2 24 -10 49 -27 69 -48 145 -53 188 -10 47 47 5 184 -73 241 -44 32 -102 39 -137 17 -17 -11 -22 -9 -35 10 -23 32 -72 31 -81 -2 l-6 -24 -35 24 c-24 16 -50 24 -78 24 -31 0 -46 6 -62 23 -17 20 -45 29 -160 50 -78 15 -149 27 -159 27 -18 1 -18 1 0 12 14 8 54 8 150 -1 96 -9 151 -9 204 -2 86 13 108 23 118 53 3 12 27 55 52 96 35 56 59 82 100 108 36 24 58 46 69 71 32 78 -10 153 -86 153 -22 0 -58 9 -82 20 -49 22 -110 26 -141 9 -21 -12 -21 -11 0 16 31 40 28 56 -20 93 -55 42 -82 49 -115 27 -24 -16 -27 -16 -35 -1 -16 28 -59 19 -100 -21 -33 -32 -38 -34 -38 -16 0 11 -6 26 -14 32 -8 7 -18 26 -21 42 -10 43 -40 59 -112 59 -75 0 -92 -13 -119 -91 -19 -57 -27 -253 -12 -294 7 -17 2 -23 -24 -33 -22 -8 -35 -8 -44 -1 -7 6 -18 8 -24 4 -16 -10 -12 1 19 52 39 65 45 89 30 125 -10 25 -17 29 -41 26 -19 -3 -28 0 -28 9 0 8 -7 16 -16 20 -13 5 -10 10 16 22 54 26 71 57 72 134 1 80 -16 107 -68 107 -28 0 -33 4 -36 28 -4 36 -36 40 -88 11 l-40 -23 -16 22 c-19 27 -64 29 -87 4z m243 -376 c0 -2 -8 -10 -17 -17 -16 -13 -17 -12 -4 4 13 16 21 21 21 13z m-1320 -429 c0 3 3 3 6 0 6 -6 -73 -137 -82 -137 -1 0 4 16 12 35 7 19 14 52 14 74 0 39 1 40 25 31 14 -5 25 -7 25 -3z m-95 -183 c-8 -20 -28 -52 -45 -70 -37 -42 -37 -51 -4 -99 18 -27 22 -41 15 -48 -21 -21 -12 -64 16 -85 26 -19 26 -20 6 -30 -18 -10 -22 -8 -27 13 -4 14 -13 25 -20 25 -16 0 -26 21 -26 55 0 13 -8 31 -17 41 -12 12 -17 31 -15 68 1 34 -5 61 -18 83 -15 26 -16 33 -5 33 7 0 15 -10 17 -21 2 -12 11 -27 20 -33 14 -8 23 -5 49 19 17 17 37 42 45 58 21 39 27 33 9 -9z m-530 -144 c3 -5 2 -10 -4 -10 -5 0 -13 5 -16 10 -3 6 -2 10 4 10 5 0 13 -4 16 -10z m-283 -395 c-2 -14 -6 -25 -8 -25 -2 0 -4 11 -4 25 0 14 4 25 9 25 4 0 6 -11 3 -25z m-583 -99 c14 -14 32 -26 42 -26 25 0 32 -15 14 -30 -9 -7 -16 -11 -18 -9 -1 3 -24 28 -52 58 -27 29 -41 49 -30 43 11 -6 31 -22 44 -36z m-15 -231 c6 -28 5 -29 -9 -11 -8 11 -15 34 -14 50 0 26 2 28 8 11 4 -11 11 -33 15 -50z m-144 -122 c0 -28 8 -45 32 -70 17 -18 28 -36 24 -40 -4 -4 -17 6 -30 22 -15 18 -27 25 -35 20 -10 -6 -12 0 -6 24 5 22 2 39 -9 56 -16 24 -15 25 4 25 16 0 20 -7 20 -37z m-122 -288 c-2 -13 -8 -6 -21 21 l-18 39 21 -21 c12 -12 20 -29 18 -39z m-168 -305 c0 -4 -6 -13 -14 -19 -11 -9 -13 -7 -13 13 0 17 4 23 13 19 8 -3 14 -9 14 -13z m-26 -397 c-4 -14 -11 -20 -20 -16 -13 5 -12 8 2 24 21 23 25 21 18 -8z m-104 -27 c14 1 34 5 45 9 19 9 19 8 4 -15 -11 -16 -31 -28 -59 -33 -36 -7 -45 -6 -64 12 -12 12 -33 21 -47 22 -18 0 -13 5 26 23 l50 22 10 -20 c7 -13 20 -21 35 -20z m-200 -6 c-20 -13 -33 -13 -25 0 3 6 14 10 23 10 15 0 15 -2 2 -10z m-350 -910 c0 -13 -11 -13 -30 0 -12 8 -11 10 8 10 12 0 22 -4 22 -10z m-153 -229 c10 -16 9 -19 -11 -23 -31 -6 -52 17 -28 31 23 14 26 14 39 -8z m-167 -11 c0 -5 -5 -10 -11 -10 -5 0 -7 5 -4 10 3 6 8 10 11 10 2 0 4 -4 4 -10z m-443 -496 c-3 -3 -12 -4 -19 -1 -8 3 -5 6 6 6 11 1 17 -2 13 -5z m-239 -547 c7 -18 12 -37 12 -42 0 -14 -26 27 -34 53 -11 35 9 26 22 -11z m-89 -67 c-18 -23 -20 -32 -10 -44 10 -12 6 -16 -25 -25 -20 -6 -47 -20 -60 -32 -13 -13 -24 -18 -23 -13 2 25 18 46 49 63 19 10 40 27 45 37 18 34 26 44 36 44 5 0 0 -13 -12 -30z m-48 -261 c-9 -22 -10 -22 -10 -3 -1 11 2 24 6 27 12 12 14 0 4 -24z m-29 -81 c-7 -7 -12 -8 -12 -2 0 14 12 26 19 19 2 -3 -1 -11 -7 -17z m-88 -524 c-5 -18 0 -32 17 -50 18 -19 19 -24 6 -24 -9 0 -23 10 -31 22 -21 29 -21 78 -1 78 11 0 14 -7 9 -26z m-536 -580 c-4 -3 -12 5 -18 18 -12 22 -12 22 6 6 10 -10 15 -20 12 -24z m71 -83 c22 -24 25 -32 15 -45 -10 -14 -12 -13 -17 13 -4 17 -14 30 -26 34 -12 3 -21 10 -21 16 0 20 21 12 49 -18z m-19 -460 c0 -5 -8 -12 -19 -16 -10 -3 -37 -23 -59 -43 -29 -27 -45 -35 -52 -28 -17 17 68 96 102 96 15 0 28 -4 28 -9z m-17 -137 c-4 -10 1 -22 11 -30 10 -7 15 -18 11 -24 -10 -17 -105 -60 -131 -60 -12 0 -46 -18 -75 -40 -30 -22 -59 -40 -65 -40 -21 0 -36 -29 -30 -56 7 -27 19 -28 71 -9 12 4 8 -3 -12 -20 -24 -19 -33 -35 -33 -57 l0 -31 -67 7 c-199 20 -196 20 -225 -4 -17 -13 -28 -31 -28 -46 0 -17 -5 -24 -20 -24 -19 0 -20 2 -5 30 19 37 19 46 -4 78 -10 15 -22 38 -26 52 -6 20 -3 18 17 -10 21 -31 30 -36 76 -40 53 -6 74 2 66 25 -4 8 12 19 43 29 27 9 71 35 98 57 27 23 69 50 93 61 41 20 95 76 121 126 9 17 16 20 30 13 16 -9 31 -5 88 28 1 0 0 -6 -4 -15z m-643 -149 l0 -34 -26 26 c-20 20 -23 28 -12 34 26 17 38 9 38 -26z m-297 -140 c-10 -13 -24 -22 -31 -20 -8 3 -21 5 -30 6 -13 0 32 23 76 38 2 1 -5 -10 -15 -24z m-94 -31 c-14 -17 -29 -17 -52 0 -16 12 -13 14 23 14 35 1 40 -1 29 -14z m-682 -420 c-3 -3 -12 -4 -19 -1 -8 3 -5 6 6 6 11 1 17 -2 13 -5z m409 -59 c-7 -28 -26 -34 -26 -9 0 8 5 25 12 37 14 26 23 8 14 -28z m-676 -536 c0 -14 -17 -10 -23 5 -4 10 -1 13 9 9 7 -3 14 -9 14 -14z m-502 -11 c3 -15 -1 -15 -27 -5 -38 14 -40 29 -4 25 16 -2 29 -10 31 -20z m15 -53 c4 -8 2 -17 -3 -20 -6 -4 -10 3 -10 14 0 25 6 27 13 6z m-208 -972 c-70 -17 -96 -20 -89 -13 10 9 47 17 84 17 19 1 21 0 5 -4z m369 -27 c-21 -15 -30 -14 -19 3 3 6 14 11 23 11 13 0 13 -2 -4 -14z m-199 -6 c3 -5 2 -10 -4 -10 -5 0 -13 5 -16 10 -3 6 -2 10 4 10 5 0 13 -4 16 -10z m290 -7 c19 -9 35 -20 35 -24 0 -4 3 -16 6 -26 5 -13 1 -11 -11 5 -10 13 -31 32 -49 43 -38 23 -29 25 19 2z m-768 -255 c6 -7 13 -21 16 -30 5 -14 -2 -13 -33 8 -22 15 -40 28 -40 30 0 10 49 2 57 -8z m-77 -82 c0 -6 -7 -2 -15 8 -8 11 -15 25 -15 30 0 6 7 2 15 -8 8 -11 15 -25 15 -30z m698 -367 c-2 -6 -8 -10 -13 -10 -5 0 -11 4 -13 10 -2 6 4 11 13 11 9 0 15 -5 13 -11z m-174 -31 c-16 -13 -37 -32 -46 -43 -22 -26 -23 -7 -1 25 21 31 33 40 57 40 15 0 13 -4 -10 -22z m-157 -177 c-2 -35 -10 -58 -30 -84 -15 -20 -31 -47 -36 -60 -7 -16 -23 -29 -48 -37 -78 -25 -142 -114 -143 -197 0 -36 -3 -43 -20 -43 -15 0 -20 7 -20 25 0 39 -23 30 -86 -35 -32 -33 -60 -58 -62 -55 -2 2 -1 16 2 30 5 18 12 25 22 21 8 -3 23 3 34 14 16 16 18 25 10 44 -9 24 -8 25 17 13 23 -10 28 -8 49 16 14 16 24 41 24 58 0 24 4 29 25 29 23 0 51 32 41 48 -2 4 7 21 20 37 13 17 24 24 24 17 0 -9 11 -12 32 -10 38 4 78 54 78 98 0 23 52 120 64 120 3 0 4 -22 3 -49z m-138 -387 c-15 -18 -16 -18 -21 11 -4 21 -3 23 14 14 15 -8 17 -13 7 -25z"/>
<path d="M7982 12567 c-39 -41 -23 -87 30 -87 34 0 46 35 26 76 -17 37 -30 39 -56 11z"/>
<path d="M7760 12450 c-41 -41 -14 -120 41 -120 74 0 95 91 28 125 -37 20 -45 19 -69 -5z"/>
<path d="M7544 12228 c-31 -28 -35 -36 -31 -65 7 -42 -6 -49 -43 -23 -37 27 -60 14 -60 -32 0 -25 -3 -29 -17 -23 -48 21 -71 17 -106 -16 -19 -18 -50 -38 -69 -44 -41 -14 -49 -46 -16 -69 12 -9 31 -16 41 -16 15 0 16 -3 7 -20 -6 -12 -10 -35 -8 -53 3 -31 5 -32 45 -30 24 1 64 13 90 27 27 14 61 28 78 31 45 10 99 74 149 177 59 122 61 129 35 161 -27 35 -50 34 -95 -5z"/>
<path d="M6440 11556 c0 -19 4 -46 10 -60 9 -25 8 -26 -23 -24 -28 3 -32 0 -35 -25 -2 -16 2 -34 8 -42 16 -19 71 -30 80 -15 5 8 17 2 38 -19 36 -37 61 -39 89 -8 33 36 37 64 13 84 -12 10 -26 28 -31 41 -5 12 -20 27 -33 32 -14 5 -35 23 -47 39 -14 19 -32 31 -46 31 -20 0 -23 -5 -23 -34z"/>
<path d="M3826 7934 c-34 -34 -5 -79 47 -72 32 4 35 51 5 72 -28 20 -33 20 -52 0z"/>
<path d="M3786 7314 c-7 -19 10 -44 29 -44 19 0 36 25 29 44 -3 9 -16 16 -29 16 -13 0 -26 -7 -29 -16z"/>
<path d="M3701 7129 c-11 -12 -22 -33 -26 -47 -5 -22 -1 -32 24 -54 38 -34 43 -34 77 -3 30 28 44 32 44 11 0 -7 7 -19 15 -26 13 -10 19 -10 35 5 38 34 15 85 -54 116 -54 24 -91 24 -115 -2z"/>
<path d="M2290 5375 c-30 -13 -81 -32 -113 -41 -95 -26 -86 -70 15 -81 72 -7 141 3 170 26 25 21 29 80 8 106 -16 19 -15 19 -80 -10z"/>
<path d="M1967 5116 c-20 -8 -53 -26 -72 -40 -38 -29 -47 -66 -17 -66 10 0 31 -13 47 -30 38 -40 85 -41 115 -2 18 22 21 36 17 76 -3 32 -11 54 -23 63 -21 16 -19 16 -67 -1z"/>
<path d="M166 2734 c-20 -20 -20 -38 0 -55 14 -11 19 -10 35 10 14 17 16 27 9 42 -13 23 -24 24 -44 3z"/>
<path d="M170 2611 c-12 -24 -13 -68 -1 -75 5 -3 12 -26 15 -50 8 -54 34 -90 55 -77 13 8 13 21 2 91 -7 45 -16 93 -21 106 -11 29 -35 31 -50 5z"/>
<path d="M13 1333 c-20 -8 -15 -51 8 -67 25 -17 46 -12 54 15 13 39 -22 69 -62 52z"/>
<path d="M350 1075 c-11 -13 -8 -21 20 -50 19 -19 42 -35 51 -35 19 0 45 61 35 85 -8 21 -89 20 -106 0z"/>
</g>
<style xmlns="" type="text/css" id="custom-page-zoom-css"/></svg>